<svg width="100%" height="100%" viewBox="0 0 17 17" fill="currentColor" xmlns="http://www.w3.org/2000/svg">
<path d="M2.00432 11.4513C1.77457 11.1848 1.40207 11.1848 1.17232 11.4513C0.942561 11.7178 0.942561 12.1499 1.17232 12.4164L3.91714 15.6003C4.37668 16.1332 5.12166 16.1332 5.5812 15.6003L8.3277 12.4145C8.55743 12.148 8.55743 11.7159 8.3277 11.4494C8.09796 11.1829 7.72544 11.1829 7.4957 11.4494L5.33887 13.9511L5.33887 1.68241C5.33887 1.30552 5.07548 1 4.75055 1C4.42568 1 4.16223 1.30552 4.16223 1.68241L4.16223 13.9544L2.00432 11.4513Z" fill="currentColor" stroke="currentColor"/>
<path d="M9.50432 5.54868C9.27457 5.81518 8.90207 5.81518 8.67232 5.54868C8.44256 5.28219 8.44256 4.85011 8.67232 4.58361L11.4171 1.39975C11.8767 0.866752 12.6217 0.866751 13.0812 1.39975L15.8277 4.58555C16.0574 4.85204 16.0574 5.28412 15.8277 5.55062C15.598 5.81712 15.2254 5.81712 14.9957 5.55062L12.8389 3.04888L12.8389 15.3176C12.8389 15.6945 12.5755 16 12.2506 16C11.9257 16 11.6622 15.6945 11.6622 15.3176L11.6622 3.04561L9.50432 5.54868Z" fill="currentColor" stroke="currentColor"/>
</svg>
