<svg width="100%" height="100%" viewBox="0 0 98 98" fill="none" xmlns="http://www.w3.org/2000/svg">
<path d="M40.8928 1.47252C39.5263 1.64516 37.4154 2.04123 35.8959 2.40682C34.5702 2.72164 32.9386 3.23957 32.9386 3.33097C32.9488 3.46299 34.3357 7.93138 34.3969 7.98216C34.4275 8.01263 35.1005 7.82983 35.8959 7.56579C39.2102 6.48931 42.9222 5.72765 46.6035 5.38237C49.2855 5.12848 54.2926 5.15895 56.1282 5.4433C56.5871 5.51439 55.7611 5.13864 53.283 4.1434C50.7336 3.12786 47.4397 2.03107 45.8387 1.66547C44.3498 1.33035 42.6162 1.25926 40.8928 1.47252Z" fill="#465952"/>
<path d="M26.4019 6.28619C24.0666 7.6267 22.3534 8.68287 20.5484 9.88121C19.1207 10.8358 17.4381 12.0545 17.4381 12.1459C17.4381 12.1865 17.6421 13.0192 17.897 14.0043C18.5803 16.6549 18.5905 16.7057 18.621 16.7463C18.6414 16.7666 18.9882 16.4822 19.3961 16.1268C22.4248 13.4559 26.4529 10.846 28.9411 9.9523C29.3898 9.78981 29.5734 9.66795 29.5734 9.53593C29.5734 9.44453 29.3694 8.40867 29.1145 7.2408C28.8595 6.08308 28.6556 5.11831 28.6556 5.10816C28.6556 5.0066 28.2477 5.21986 26.4019 6.28619Z" fill="#465952"/>
<path d="M49.8158 9.8203C46.8381 9.93201 43.3505 10.3179 40.8419 10.8155C39.1694 11.1507 36.5792 11.892 36.4568 12.0748C36.3855 12.2068 39.3326 16.0557 40.4136 17.2338L40.8011 17.6501L42.657 16.4112C47.2154 13.3747 51.4577 11.171 55.2206 9.87108C55.445 9.78984 54.8841 9.76952 53.0791 9.77968C51.733 9.77968 50.2645 9.79999 49.8158 9.8203Z" fill="#EBEBE6"/>
<path d="M59.7586 12.8872C54.5373 14.7051 49.724 17.0307 45.3288 19.8742C44.7373 20.2499 44.2581 20.5952 44.2581 20.6358C44.2581 20.7374 45.5838 21.7022 47.2664 22.8294C48.7654 23.8348 52.0185 25.7948 52.1715 25.7948C52.2225 25.7948 52.8139 24.8707 53.487 23.7434C55.8732 19.7422 58.9632 15.2839 60.8191 13.1716C61.2474 12.6841 61.5636 12.2881 61.5228 12.2982C61.482 12.2982 60.6866 12.5623 59.7586 12.8872Z" fill="#FF6A5F"/>
<path d="M80.205 13.7099C81.9488 14.7051 83.9986 16.0253 85.2223 16.919C85.6404 17.2236 86.0075 17.4674 86.0279 17.4471C86.0483 17.4267 85.3447 16.6956 84.4575 15.8222L82.8564 14.2481L81.5307 13.7302C80.3376 13.2732 78.8895 12.7959 78.6754 12.7959C78.6244 12.7959 79.3178 13.2122 80.205 13.7099Z" fill="#FF6A5F"/>
<path d="M64.8983 16.1065C62.1449 19.5086 60.2889 21.8545 58.7389 23.916C57.3928 25.7136 56.1385 27.5111 56.1997 27.572C56.2914 27.6431 59.31 28.5774 60.8192 28.9836C63.3381 29.6742 67.5395 30.578 67.6517 30.4562C67.7843 30.3343 67.8251 24.6371 67.7231 22.2404C67.5701 18.8383 67.1316 13.8114 66.9684 13.6489C66.948 13.6184 66.0201 14.7355 64.8983 16.1065Z" fill="#EBEBE6"/>
<path d="M30.8481 14.0754C29.4204 14.6238 26.9934 15.8526 25.688 16.6853C24.0462 17.7313 22.9755 18.5641 21.8027 19.6913L20.8033 20.6663L22.2412 22.6974C24.8722 26.4142 27.544 29.9585 27.7174 29.9585C27.7582 29.9585 27.9519 29.6945 28.1457 29.3695C29.9813 26.333 33.3873 22.6263 36.1305 20.6764L36.8239 20.189L36.4772 19.7624C35.5594 18.6352 33.5811 16.0659 32.7857 14.9792C32.2962 14.309 31.8679 13.7504 31.8271 13.7403C31.7965 13.7301 31.358 13.8723 30.8481 14.0754Z" fill="#FF6A5F"/>
<path d="M12.166 17.5994C9.61653 20.6561 7.64837 23.3778 6.47563 25.4394C5.54764 27.0744 5.53744 26.7799 6.52662 29.2476C6.99571 30.4257 7.41382 31.4108 7.44441 31.4311C7.4852 31.4514 7.61777 31.2076 7.75034 30.8928C9.02506 27.7751 11.3297 24.3527 13.9098 21.7326L14.9601 20.6663L14.3585 18.4321C14.0219 17.2033 13.7262 16.1167 13.6854 16.0253C13.6344 15.8932 13.2775 16.2588 12.166 17.5994Z" fill="#FF6A5F"/>
<path d="M72.0979 16.919C72.0979 16.9494 72.2101 17.7619 72.3528 18.7165C72.7506 21.4889 72.8423 23.0732 72.7811 26.0081C72.7404 28.6079 72.669 29.2883 72.2407 31.3702L72.1693 31.7155L72.8729 31.6545C73.2604 31.6139 74.9635 31.553 76.6665 31.5225L79.7564 31.4514L79.685 31.1366C79.5218 30.3445 78.4919 27.4299 77.9208 26.1503C76.6461 23.2864 75.198 20.8593 73.1279 18.097C72.2713 16.9596 72.0979 16.7565 72.0979 16.919Z" fill="#465952"/>
<path d="M79.0221 19.0414C80.7761 21.692 82.8055 25.9166 84.0904 29.6335L84.3861 30.4866L85.0286 30.4256C86.1707 30.3038 88.2613 29.6335 90.7087 28.5875L91.1166 28.4149L90.4538 27.7954C88.2409 25.7541 83.0298 21.499 79.7666 19.0617L78.3185 17.9649L79.0221 19.0414Z" fill="#FF6A5F"/>
<path d="M40.3727 23.2865C40.23 23.4083 39.6283 23.9059 39.047 24.3832C36.6811 26.3331 34.4071 28.6079 32.7142 30.6999C31.878 31.7459 30.899 33.1372 30.899 33.2794C30.9092 33.4825 37.4358 37.9306 40.8928 40.1039C42.4021 41.0483 42.6876 41.2007 42.7488 41.0483C44.564 36.6815 46.5525 33.2693 48.9184 30.4562L49.7546 29.461L48.9694 29.0344C46.7565 27.8361 43.5442 25.541 40.7908 23.1951C40.6685 23.0935 40.5971 23.1037 40.3727 23.2865Z" fill="#FF6A5F"/>
<path d="M16.6122 24.759C13.1449 29.0446 10.7485 33.1169 10.0346 35.9198C9.64712 37.4634 9.65732 37.5447 10.5751 38.6821C13.0328 41.7389 17.8869 47.5275 17.9991 47.5275C18.0092 47.5275 18.152 47.172 18.3152 46.7353C19.855 42.4091 22.0679 38.0728 24.1279 35.3409L24.9743 34.2238L23.1081 31.9084C20.7932 29.0446 18.9474 26.658 17.9481 25.2566C17.53 24.6676 17.1628 24.1801 17.1322 24.1801C17.1017 24.1801 16.8671 24.4442 16.6122 24.759Z" fill="#465952"/>
<path d="M52.9364 32.5888C50.2544 37.1283 47.2155 42.7443 47.2155 43.1809C47.2155 43.252 47.3684 43.3739 47.552 43.445C48.6023 43.8614 52.9976 45.2933 54.9147 45.862C57.9536 46.7557 64.0723 48.2485 64.1844 48.1266C64.368 47.9235 66.897 36.6205 66.897 36.001C66.897 35.9198 66.7951 35.8284 66.6727 35.8081C63.2768 35.1074 58.902 33.6755 54.9963 31.9897L53.64 31.4006L52.9364 32.5888Z" fill="#FFE9E8"/>
<path d="M91.9324 32.538C90.4334 33.3098 88.5978 34.0613 86.7316 34.6909C86.1095 34.894 85.5996 35.0768 85.5792 35.087C85.5589 35.1073 85.6812 35.8182 85.8546 36.6814C86.7112 40.9771 86.9253 42.7543 86.9253 45.7197C86.9355 47.111 86.9559 48.2383 86.9763 48.2383C87.3027 48.2383 96.5316 44.5214 96.8579 44.2573C97.0109 44.1253 97.0211 42.2364 96.8681 40.8451C96.6234 38.6008 95.9605 36.265 95.0223 34.3558C94.492 33.259 93.5743 31.7763 93.4417 31.7966C93.3907 31.8068 92.7176 32.1419 91.9324 32.538Z" fill="#FF6A5F"/>
<path d="M2.87578 33.8074C1.64186 36.5595 0.75466 40.2155 0.642485 43.059L0.581299 44.5316L1.40731 46.6642C1.86621 47.8321 2.3455 49.071 2.48827 49.4062L2.74321 50.0155L2.75341 49.1523C2.76361 46.8165 3.17152 43.2723 3.67121 41.2615C3.97714 39.9819 4.52781 38.5094 4.93572 37.8391L5.17027 37.4532L4.29327 35.5034C3.80378 34.4371 3.36527 33.452 3.30409 33.32C3.21231 33.0965 3.18172 33.127 2.87578 33.8074Z" fill="#EBEBE6"/>
<path d="M79.2362 35.7471C77.5944 36.001 75.3611 36.1533 73.4541 36.1533H71.8225L71.5981 37.5954C71.0882 40.8147 70.2112 44.7753 69.3852 47.568C69.1915 48.2281 69.0589 48.7968 69.0895 48.8375C69.1303 48.8679 70.976 48.939 73.1992 48.9796C77.8799 49.071 81.6938 48.9999 81.806 48.8172C81.9182 48.6445 81.8978 44.3081 81.7856 42.2974C81.6327 39.728 81.4185 38.1032 81.0004 36.2244C80.827 35.4424 81.0004 35.4831 79.2362 35.7471Z" fill="#465952"/>
<path d="M27.544 38.2656C25.7492 41.424 23.4547 46.2986 22.3228 49.396L21.8843 50.6045L22.2412 50.9091C22.435 51.0716 23.4649 51.8536 24.5255 52.6559C27.2483 54.6971 30.8583 57.0532 33.9584 58.8304L34.9271 59.3788L35.1107 58.7593C35.7634 56.5353 35.9877 55.865 36.4262 54.6565C37.4154 51.9247 38.7921 48.9593 40.179 46.5626C40.5257 45.9634 40.7908 45.4658 40.7704 45.4557C40.75 45.4455 39.9342 44.9581 38.9552 44.3792C36.1611 42.734 31.7659 39.728 29.1043 37.6258L28.2782 36.9759L27.544 38.2656Z" fill="#465952"/>
<path d="M8.05622 43.9731C6.96506 47.9946 6.63874 53.7934 7.29139 57.4697C7.55653 58.993 7.49535 58.8813 9.70825 61.3389C10.8504 62.5982 12.3597 64.2129 13.0633 64.9441L14.3584 66.2643L14.3074 64.0809C14.2054 60.1609 14.8173 56.8299 16.2348 53.5395L16.6427 52.5951L15.7963 51.7115C11.7682 47.5275 9.83062 45.4558 8.64769 44.0746L8.17859 43.5263L8.05622 43.9731Z" fill="#FFE9E8"/>
<path d="M44.3192 48.939C43.33 50.899 42.2185 53.3465 41.4027 55.3471C40.5869 57.3782 39.2204 61.4404 39.3325 61.5419C39.5671 61.7653 45.3492 63.5832 49.0816 64.5987C52.3142 65.4822 57.5253 66.7212 58.0046 66.7212C58.2085 66.7212 58.9223 65.0151 60.2888 61.2982C61.3596 58.3633 62.7159 53.8542 62.7159 53.2145C62.7159 53.1027 62.2366 52.9301 60.8599 52.5645C56.7706 51.4779 48.5717 48.807 45.2574 47.4766C45.1146 47.4157 44.9515 47.6797 44.3192 48.939Z" fill="#FF6A5F"/>
<path d="M96.3174 49.3757C93.768 50.6655 90.5659 51.9349 88.1796 52.6052C87.3944 52.8286 86.7418 53.0215 86.7316 53.0418C86.7214 53.052 86.6296 53.5902 86.5378 54.23C86.0891 57.2259 85.1917 61.1357 84.1923 64.4362C83.8864 65.4416 83.6519 66.2744 83.6723 66.2947C83.6825 66.3048 83.8048 66.2744 83.9374 66.2236C84.07 66.1627 85.3753 65.6752 86.8335 65.137C89.5767 64.1214 93.0542 62.7098 94.747 61.9177C95.6852 61.4912 95.726 61.4505 95.9401 60.9631C96.4194 59.8358 96.8681 57.7946 97.123 55.4995C97.429 52.7676 97.6023 48.8375 97.4188 48.8578C97.3678 48.8578 96.8783 49.0914 96.3174 49.3757Z" fill="#EBEBE6"/>
<path d="M67.6211 53.7933C67.5701 54.0066 67.305 55.012 67.05 56.0275C66.0608 59.9069 64.9391 63.1465 63.7154 65.6041C63.2871 66.4673 62.9403 67.1883 62.9505 67.1883C62.9607 67.1985 66.4382 67.2391 70.6906 67.2797L78.4001 67.3508L79.0323 65.4416C79.8074 63.0957 80.6538 59.7749 81.0107 57.7336C81.2452 56.383 81.6021 53.7019 81.5512 53.6613C81.541 53.6511 80.664 53.6918 79.5932 53.7425C77.0234 53.8644 70.5172 53.7121 68.2533 53.4582L67.7231 53.4074L67.6211 53.7933Z" fill="#465952"/>
<path d="M0.662871 55.8041C1.14216 61.024 2.13134 65.4112 3.41625 67.9399C3.68139 68.468 4.68077 70.0725 4.74196 70.0725C4.75215 70.0725 4.62978 69.6257 4.46662 69.0773C3.97713 67.4423 3.37546 64.9135 3.16131 63.6238C2.81459 61.4505 2.80439 60.6584 3.11032 59.1554C3.16131 58.8914 3.00834 58.6172 1.8866 56.972L0.601685 55.0932L0.662871 55.8041Z" fill="#FFE9E8"/>
<path d="M20.3547 57.104C19.4777 62.6591 19.0494 67.2493 19.2227 69.2906L19.2941 70.1741L20.834 71.2607C24.3522 73.7387 29.6244 77.161 29.7468 77.0493C29.757 77.029 29.8692 76.3791 29.9813 75.5971C30.6646 70.9459 31.7251 66.9142 32.8163 64.8425L33.2956 63.9387L31.7659 63.0551C28.2681 61.0647 24.444 58.4344 21.0481 55.6924L20.6402 55.3573L20.3547 57.104Z" fill="#FF6A5F"/>
<path d="M37.2522 66.8938C35.7634 71.0779 34.6926 75.4447 34.4275 78.3593L34.3561 79.0804L35.8653 79.6084C40.0872 81.0911 45.3594 82.4317 49.9688 83.2136C50.6316 83.3253 50.8662 83.3355 50.958 83.2441C51.0905 83.1121 52.7426 79.6694 53.6909 77.5367C54.3946 75.9728 56.0874 71.7989 56.0874 71.6364C56.0874 71.5755 55.7815 71.4739 55.4042 71.3927C51.784 70.692 44.7373 68.3156 39.1286 65.9189C38.4658 65.6346 37.8845 65.401 37.8539 65.401C37.8131 65.401 37.5378 66.0712 37.2522 66.8938Z" fill="#EBEBE6"/>
<path d="M8.36218 66.1424C8.36218 66.183 8.52535 67.0259 8.7293 68.0211C9.75927 73.1801 11.3297 78.1258 12.9512 81.3349C13.6344 82.6957 14.6746 84.0667 15.9697 85.3158C16.7243 86.0267 17.8359 86.9305 17.9786 86.9305C18.0092 86.9305 17.8766 86.5751 17.6727 86.1384C15.3476 81.081 14.2361 76.3283 14.7256 73.505L14.8989 72.52L11.6356 69.2905C9.83065 67.5133 8.36218 66.0916 8.36218 66.1424Z" fill="#465952"/>
<path d="M92.8502 67.7977C90.4639 68.8437 86.3338 70.2757 83.3765 71.0779C82.5403 71.3115 81.8367 71.5146 81.8061 71.5349C81.7857 71.5654 81.6123 72.0529 81.4186 72.6317C80.6333 74.937 79.0221 78.3594 77.4109 81.081C76.9622 81.8529 76.5848 82.5028 76.5848 82.513C76.5848 82.6145 81.1228 80.817 83.4275 79.8218C86.6092 78.4203 86.7724 78.3289 87.629 77.2626C89.2708 75.2112 91.2389 72.3575 92.4117 70.2757C92.9726 69.3007 93.819 67.6048 93.819 67.4728C93.819 67.3915 93.6354 67.4524 92.8502 67.7977Z" fill="#FFE9E8"/>
<path d="M60.9314 73.3426C59.9626 75.9627 58.1066 80.1162 56.8931 82.4215C56.5056 83.1527 56.1895 83.7925 56.1895 83.8331C56.1895 83.9347 69.0998 83.8027 69.7524 83.7011C70.1909 83.63 70.2317 83.5894 71.0067 82.5129C72.6078 80.2584 74.3924 77.1915 75.6263 74.5409C76.3299 73.0277 76.3503 72.9668 76.1464 72.9059C76.024 72.8754 74.7493 72.8145 73.3216 72.7738C71.8939 72.7332 68.6307 72.6114 66.0812 72.5098C63.5318 72.3981 61.4107 72.3067 61.3801 72.3067C61.3495 72.3067 61.1455 72.7738 60.9314 73.3426Z" fill="#FF6A5F"/>
<path d="M19.6816 75.8916C19.6816 75.9119 19.7734 76.4806 19.8958 77.1407C20.9971 83.4878 23.5364 88.8093 26.9934 91.9981C27.4829 92.4551 27.9112 92.8207 27.952 92.8207C27.9928 92.8207 28.0437 91.4598 28.0743 89.8045C28.1253 86.6766 28.2375 85.4275 28.6964 83.0511L28.9208 81.863L24.5867 79.0296C19.4267 75.6681 19.6816 75.8205 19.6816 75.8916Z" fill="#EBEBE6"/>
<path d="M33.3669 84.2191C33.0202 87.3571 32.7346 91.5107 32.7346 93.3996V94.6385L33.0202 94.7909C34.0909 95.3393 38.0884 96.5681 40.5053 97.086C41.3109 97.2485 42.0655 97.411 42.1879 97.4414C42.3817 97.4821 42.5958 97.2079 43.8807 95.2885C45.6755 92.5871 47.1542 90.2006 47.8986 88.7992C48.4493 87.7633 48.4493 87.7531 48.2147 87.6922C48.0822 87.6719 47.246 87.4789 46.3486 87.286C42.504 86.4431 38.374 85.1432 33.9991 83.3965L33.4791 83.1832L33.3669 84.2191Z" fill="#465952"/>
<path d="M80.358 85.783C79.5625 86.0369 76.2891 86.7884 74.6574 87.0931L73.0972 87.3876L72.3629 88.3016C71.333 89.6015 69.7421 91.399 68.5082 92.6481C67.9269 93.2473 67.468 93.7347 67.4986 93.7347C67.6006 93.7347 72.3731 91.1959 73.9028 90.3225C76.6562 88.7484 79.0628 87.1743 80.4701 86.0369C81.0412 85.5698 81.0412 85.5596 80.358 85.783Z" fill="#465952"/>
<path d="M65.0104 88.3726C64.3374 88.4031 61.3902 88.4742 58.4533 88.5148L53.1301 88.5859L52.3449 89.967C51.0906 92.1809 49.8872 94.0597 48.2454 96.3649L47.7865 97.0149L51.2435 96.9438C55.9243 96.8524 56.7401 96.7915 57.3112 96.4259C59.0244 95.3494 61.2577 93.5417 63.1544 91.7138C64.4496 90.4545 66.3667 88.3726 66.275 88.3218C66.2546 88.3117 65.6835 88.332 65.0104 88.3726Z" fill="#FF6A5F"/>
</svg>
