<svg width="100%" height="100%" viewBox="0 0 11 11" fill="currentColor" xmlns="http://www.w3.org/2000/svg">
<path fill-rule="evenodd" clip-rule="evenodd" d="M7.56148 6.9827C8.06556 6.35254 8.36698 5.55322 8.36698 4.68349C8.36698 2.64915 6.71782 1 4.68349 1C2.64915 1 1 2.64915 1 4.68349C1 6.71782 2.64915 8.36698 4.68349 8.36698C5.55322 8.36698 6.35254 8.06556 6.9827 7.56148L9.3013 9.88013C9.46114 10.04 9.72029 10.04 9.88013 9.88013C10.04 9.72029 10.04 9.46114 9.88013 9.3013L7.56148 6.9827ZM4.68349 7.55252C3.09896 7.55252 1.81445 6.26802 1.81445 4.68349C1.81445 3.09896 3.09896 1.81445 4.68349 1.81445C6.26802 1.81445 7.55252 3.09896 7.55252 4.68349C7.55252 6.26802 6.26802 7.55252 4.68349 7.55252Z" fill="currentColor" stroke="currentColor"/>
</svg>
