<?xml version="1.0" standalone="no"?>
<!DOCTYPE svg PUBLIC "-//W3C//DTD SVG 20010904//EN"
 "http://www.w3.org/TR/2001/REC-SVG-20010904/DTD/svg10.dtd">
<svg version="1.0" xmlns="http://www.w3.org/2000/svg"
 width="961.000000pt" height="965.000000pt" viewBox="0 0 961.000000 965.000000"
 preserveAspectRatio="xMidYMid meet">
<metadata>
Created by potrace 1.16, written by Peter Selinger 2001-2019
</metadata>
<g transform="translate(0.000000,965.000000) scale(0.100000,-0.100000)"
fill="#000000" stroke="none">
<path d="M4010 9505 c-134 -17 -341 -56 -490 -92 -130 -31 -290 -82 -290 -91
1 -13 137 -453 143 -458 3 -3 69 15 147 41 325 106 689 181 1050 215 263 25
754 22 934 -6 45 -7 -36 30 -279 128 -250 100 -573 208 -730 244 -146 33 -316
40 -485 19z"/>
<path d="M2589 9031 c-229 -132 -397 -236 -574 -354 -140 -94 -305 -214 -305
-223 0 -4 20 -86 45 -183 67 -261 68 -266 71 -270 2 -2 36 26 76 61 297 263
692 520 936 608 44 16 62 28 62 41 0 9 -20 111 -45 226 -25 114 -45 209 -45
210 0 10 -40 -11 -221 -116z"/>
<path d="M4885 8683 c-292 -11 -634 -49 -880 -98 -164 -33 -418 -106 -430
-124 -7 -13 282 -392 388 -508 l38 -41 182 122 c447 299 863 516 1232 644 22
8 -33 10 -210 9 -132 0 -276 -2 -320 -4z"/>
<path d="M5860 8381 c-512 -179 -984 -408 -1415 -688 -58 -37 -105 -71 -105
-75 0 -10 130 -105 295 -216 147 -99 466 -292 481 -292 5 0 63 91 129 202 234
394 537 833 719 1041 42 48 73 87 69 86 -4 0 -82 -26 -173 -58z"/>
<path d="M7865 8300 c171 -98 372 -228 492 -316 41 -30 77 -54 79 -52 2 2 -67
74 -154 160 l-157 155 -130 51 c-117 45 -259 92 -280 92 -5 0 63 -41 150 -90z"/>
<path d="M6364 8064 c-270 -335 -452 -566 -604 -769 -132 -177 -255 -354 -249
-360 9 -7 305 -99 453 -139 247 -68 659 -157 670 -145 13 12 17 573 7 809 -15
335 -58 830 -74 846 -2 3 -93 -107 -203 -242z"/>
<path d="M3025 8264 c-140 -54 -378 -175 -506 -257 -161 -103 -266 -185 -381
-296 l-98 -96 141 -200 c258 -366 520 -715 537 -715 4 0 23 26 42 58 180 299
514 664 783 856 l68 48 -34 42 c-90 111 -284 364 -362 471 -48 66 -90 121 -94
122 -3 1 -46 -13 -96 -33z"/>
<path d="M1193 7917 c-250 -301 -443 -569 -558 -772 -91 -161 -92 -132 5 -375
46 -116 87 -213 90 -215 4 -2 17 22 30 53 125 307 351 644 604 902 l103 105
-59 220 c-33 121 -62 228 -66 237 -5 13 -40 -23 -149 -155z"/>
<path d="M7070 7984 c0 -3 11 -83 25 -177 39 -273 48 -429 42 -718 -4 -256
-11 -323 -53 -528 l-7 -34 69 6 c38 4 205 10 372 13 l303 7 -7 31 c-16 78
-117 365 -173 491 -125 282 -267 521 -470 793 -84 112 -101 132 -101 116z"/>
<path d="M7749 7775 c172 -261 371 -677 497 -1043 l29 -84 63 6 c112 12 317
78 557 181 l40 17 -65 61 c-217 201 -728 620 -1048 860 l-142 108 69 -106z"/>
<path d="M3959 7357 c-14 -12 -73 -61 -130 -108 -232 -192 -455 -416 -621
-622 -82 -103 -178 -240 -178 -254 1 -20 641 -458 980 -672 148 -93 176 -108
182 -93 178 430 373 766 605 1043 l82 98 -77 42 c-217 118 -532 344 -802 575
-12 10 -19 9 -41 -9z"/>
<path d="M1629 7212 c-340 -422 -575 -823 -645 -1099 -38 -152 -37 -160 53
-272 241 -301 717 -871 728 -871 1 0 15 35 31 78 151 426 368 853 570 1122
l83 110 -183 228 c-227 282 -408 517 -506 655 -41 58 -77 106 -80 106 -3 0
-26 -26 -51 -57z"/>
<path d="M5191 6441 c-263 -447 -561 -1000 -561 -1043 0 -7 15 -19 33 -26 103
-41 534 -182 722 -238 298 -88 898 -235 909 -223 18 20 266 1133 266 1194 0 8
-10 17 -22 19 -333 69 -762 210 -1145 376 l-133 58 -69 -117z"/>
<path d="M9015 6446 c-147 -76 -327 -150 -510 -212 -61 -20 -111 -38 -113 -39
-2 -2 10 -72 27 -157 84 -423 105 -598 105 -890 1 -137 3 -248 5 -248 32 0
937 366 969 392 15 13 16 199 1 336 -24 221 -89 451 -181 639 -52 108 -142
254 -155 252 -5 -1 -71 -34 -148 -73z"/>
<path d="M282 6321 c-121 -271 -208 -631 -219 -911 l-6 -145 81 -210 c45 -115
92 -237 106 -270 l25 -60 1 85 c1 230 41 579 90 777 30 126 84 271 124 337
l23 38 -86 192 c-48 105 -91 202 -97 215 -9 22 -12 19 -42 -48z"/>
<path d="M7770 6130 c-161 -25 -380 -40 -567 -40 l-160 0 -22 -142 c-50 -317
-136 -707 -217 -982 -19 -65 -32 -121 -29 -125 4 -3 185 -10 403 -14 459 -9
833 -2 844 16 11 17 9 444 -2 642 -15 253 -36 413 -77 598 -17 77 0 73 -173
47z"/>
<path d="M2701 5882 c-176 -311 -401 -791 -512 -1096 l-43 -119 35 -30 c19
-16 120 -93 224 -172 267 -201 621 -433 925 -608 l95 -54 18 61 c64 219 86
285 129 404 97 269 232 561 368 797 34 59 60 108 58 109 -2 1 -82 49 -178 106
-274 162 -705 458 -966 665 l-81 64 -72 -127z"/>
<path d="M790 5320 c-107 -396 -139 -967 -75 -1329 26 -150 20 -139 237 -381
112 -124 260 -283 329 -355 l127 -130 -5 215 c-10 386 50 714 189 1038 l40 93
-83 87 c-395 412 -585 616 -701 752 l-46 54 -12 -44z"/>
<path d="M4346 4831 c-97 -193 -206 -434 -286 -631 -80 -200 -214 -600 -203
-610 23 -22 590 -201 956 -301 317 -87 828 -209 875 -209 20 0 90 168 224 534
105 289 238 733 238 796 0 11 -47 28 -182 64 -401 107 -1205 370 -1530 501
-14 6 -30 -20 -92 -144z"/>
<path d="M9445 4788 c-250 -127 -564 -252 -798 -318 -77 -22 -141 -41 -142
-43 -1 -1 -10 -54 -19 -117 -44 -295 -132 -680 -230 -1005 -30 -99 -53 -181
-51 -183 1 -1 13 2 26 7 13 6 141 54 284 107 269 100 610 239 776 317 92 42
96 46 117 94 47 111 91 312 116 538 30 269 47 656 29 654 -5 0 -53 -23 -108
-51z"/>
<path d="M6631 4353 c-5 -21 -31 -120 -56 -220 -97 -382 -207 -701 -327 -943
-42 -85 -76 -156 -75 -156 1 -1 342 -5 759 -9 l756 -7 62 188 c76 231 159 558
194 759 23 133 58 397 53 401 -1 1 -87 -3 -192 -8 -252 -12 -890 3 -1112 28
l-52 5 -10 -38z"/>
<path d="M65 4155 c47 -514 144 -946 270 -1195 26 -52 124 -210 130 -210 1 0
-11 44 -27 98 -48 161 -107 410 -128 537 -34 214 -35 292 -5 440 5 26 -10 53
-120 215 l-126 185 6 -70z"/>
<path d="M1996 4027 c-86 -547 -128 -999 -111 -1200 l7 -87 151 -107 c345
-244 862 -581 874 -570 1 2 12 66 23 143 67 458 171 855 278 1059 l47 89 -150
87 c-343 196 -718 455 -1051 725 l-40 33 -28 -172z"/>
<path d="M3653 3063 c-146 -412 -251 -842 -277 -1129 l-7 -71 148 -52 c414
-146 931 -278 1383 -355 65 -11 88 -12 97 -3 13 13 175 352 268 562 69 154
235 565 235 581 0 6 -30 16 -67 24 -355 69 -1046 303 -1596 539 -65 28 -122
51 -125 51 -4 0 -31 -66 -59 -147z"/>
<path d="M820 3137 c0 -4 16 -87 36 -185 101 -508 255 -995 414 -1311 67 -134
169 -269 296 -392 74 -70 183 -159 197 -159 3 0 -10 35 -30 78 -228 498 -337
966 -289 1244 l17 97 -320 318 c-177 175 -321 315 -321 310z"/>
<path d="M9105 2974 c-234 -103 -639 -244 -929 -323 -82 -23 -151 -43 -154
-45 -2 -3 -19 -51 -38 -108 -77 -227 -235 -564 -393 -832 -44 -76 -81 -140
-81 -141 0 -10 445 167 671 265 312 138 328 147 412 252 161 202 354 483 469
688 55 96 138 263 138 276 0 8 -18 2 -95 -32z"/>
<path d="M5975 2428 c-95 -258 -277 -667 -396 -894 -38 -72 -69 -135 -69 -139
0 -10 1266 3 1330 13 43 7 47 11 123 117 157 222 332 524 453 785 69 149 71
155 51 161 -12 3 -137 9 -277 13 -140 4 -460 16 -710 26 -250 11 -458 20 -461
20 -3 0 -23 -46 -44 -102z"/>
<path d="M1930 2177 c0 -2 9 -58 21 -123 108 -625 357 -1149 696 -1463 48 -45
90 -81 94 -81 4 0 9 134 12 297 5 308 16 431 61 665 l22 117 -425 279 c-506
331 -481 316 -481 309z"/>
<path d="M3272 1357 c-34 -309 -62 -718 -62 -904 l0 -122 28 -15 c105 -54 497
-175 734 -226 79 -16 153 -32 165 -35 19 -4 40 23 166 212 176 266 321 501
394 639 54 102 54 103 31 109 -13 2 -95 21 -183 40 -377 83 -782 211 -1211
383 l-51 21 -11 -102z"/>
<path d="M7880 1203 c-78 -25 -399 -99 -559 -129 l-153 -29 -72 -90 c-101
-128 -257 -305 -378 -428 -57 -59 -102 -107 -99 -107 10 0 478 250 628 336
270 155 506 310 644 422 56 46 56 47 -11 25z"/>
<path d="M6375 948 c-66 -3 -355 -10 -643 -14 l-522 -7 -77 -136 c-123 -218
-241 -403 -402 -630 l-45 -64 339 7 c459 9 539 15 595 51 168 106 387 284 573
464 127 124 315 329 306 334 -2 1 -58 -1 -124 -5z"/>
</g>
</svg>
